<svg width="19" height="19" viewBox="0 0 19 19" fill="none" xmlns="http://www.w3.org/2000/svg">
<path d="M12.589 0H5.72228C2.56251 0 0 2.64281 0 5.90159V12.9835C0 16.2423 2.56251 18.8851 5.72228 18.8851H12.589C15.7488 18.8851 18.3113 16.2423 18.3113 12.9835V5.90159C18.3113 2.64281 15.7488 0 12.589 0ZM16.5946 12.9835C16.5946 15.2615 14.7978 17.1146 12.589 17.1146H5.72228C3.51348 17.1146 1.71668 15.2615 1.71668 12.9835V5.90159C1.71668 3.62358 3.51348 1.77048 5.72228 1.77048H12.589C14.7978 1.77048 16.5946 3.62358 16.5946 5.90159V12.9835Z" fill="black"/>
<path d="M9.15546 4.72119C6.62729 4.72119 4.57764 6.83507 4.57764 9.44247C4.57764 12.0499 6.62729 14.1637 9.15546 14.1637C11.6836 14.1637 13.7333 12.0499 13.7333 9.44247C13.7333 6.83507 11.6836 4.72119 9.15546 4.72119ZM9.15546 12.3933C7.57826 12.3933 6.29432 11.0691 6.29432 9.44247C6.29432 7.81473 7.57826 6.49167 9.15546 6.49167C10.7327 6.49167 12.0166 7.81473 12.0166 9.44247C12.0166 11.0691 10.7327 12.3933 9.15546 12.3933Z" fill="black"/>
<path d="M14.1912 4.72111C14.444 4.72111 14.6489 4.50973 14.6489 4.24898C14.6489 3.98823 14.444 3.77686 14.1912 3.77686C13.9384 3.77686 13.7334 3.98823 13.7334 4.24898C13.7334 4.50973 13.9384 4.72111 14.1912 4.72111Z" fill="black"/>
</svg>
